# xmcd
#
# Track frame offsets: 
#        150
#        14400
#        31425
#        55125
#        74137
#        92475
#        107325
#        122175
#        142200
#        160125
#        173662
#
# Disc length: 2542 seconds
#
# Revision: 0
# Processed by: cddbd v1.5.2PL0 Copyright (c) Steve Scherf et al.
# Submitted via: ExactAudioCopy v1.0b3
#
DISCID=9609ec0b
DTITLE=Bonnie Foxley - Bonnie Foxley (2000)
DYEAR=2000
DGENRE=Singer/Songwriter
TTITLE0=Trust In His Mercy
TTITLE1=A Stone
TTITLE2=Walls Of Truth
TTITLE3=Only Jesus
TTITLE4=A River
TTITLE5=You Are My Joy
TTITLE6=Walk In The Light
TTITLE7=A Father's Heart
TTITLE8=Turn Back
TTITLE9=You Loved Me
TTITLE10=This Love
EXTD=
EXTT0=
EXTT1=
EXTT2=
EXTT3=
EXTT4=
EXTT5=
EXTT6=
EXTT7=
EXTT8=
EXTT9=
EXTT10=
PLAYORDER=
